<svg width="500" height="500" viewBox="0 0 500 500" fill="none" xmlns="http://www.w3.org/2000/svg">
  <g clip-path="url(#clip0_1_3)">
  <path d="M433.69 142.27H385.35C385.35 142.27 385.12 170.09 384.8 175.41H433.69C442.479 175.418 450.907 178.913 457.122 185.128C463.337 191.343 466.832 199.771 466.84 208.56V291.43C466.835 300.221 463.341 308.651 457.125 314.868C450.91 321.086 442.481 324.582 433.69 324.59H341.15C321.87 324.59 307.57 322.69 296.96 319.09C281.87 313.97 274.26 305.4 270.45 293.84C262.98 294.18 256.03 294.2 249.98 294.2C245.46 294.2 240.91 294.2 236.54 294.3C241.94 320 256.69 343.57 296.96 353.16C306.041 355.25 315.279 356.588 324.58 357.16V433.7C324.572 442.488 321.078 450.913 314.865 457.128C308.652 463.343 300.228 466.839 291.44 466.85H208.56C199.77 466.842 191.341 463.347 185.125 457.132C178.908 450.918 175.411 442.49 175.4 433.7V341.17C175.4 266.58 203.48 266.58 249.98 266.58C295.47 266.58 357.73 266.58 357.73 158.83V66.3C357.711 48.7236 350.722 31.8722 338.294 19.4428C325.867 7.01345 309.016 0.0211763 291.44 0L208.56 0C190.98 0.0158829 174.125 7.00582 161.693 19.4358C149.261 31.8657 142.269 48.7201 142.25 66.3V142.3H66.25C48.6866 142.329 31.851 149.32 19.4328 161.74C7.01451 174.16 0.0264428 190.997 0 208.56L0 291.43C0.0185298 309.008 7.00964 325.861 19.4393 338.291C31.8689 350.72 48.7218 357.711 66.3 357.73H114.64V341.17C114.64 335.36 114.86 329.9 115.19 324.59H66.29C57.4997 324.582 49.072 321.085 42.8582 314.868C36.6444 308.65 33.1526 300.22 33.15 291.43V208.56C33.1553 199.771 36.6482 191.344 42.8617 185.129C49.0752 178.913 57.5014 175.418 66.29 175.41H158.83C178.15 175.41 192.43 177.31 203.02 180.9C218.1 186.02 225.72 194.59 229.55 206.15C237.01 205.82 243.96 205.79 249.98 205.79C254.52 205.79 259.08 205.79 263.46 205.69C258.06 180 243.3 156.43 203 146.83C193.92 144.735 184.681 143.397 175.38 142.83V66.3C175.391 57.5096 178.888 49.0824 185.105 42.8676C191.321 36.6527 199.75 33.1579 208.54 33.15H291.42C300.211 33.1553 308.641 36.6493 314.858 42.8647C321.076 49.0801 324.572 57.5088 324.58 66.3V158.83C324.58 233.41 296.51 233.41 249.98 233.42C204.53 233.42 142.25 233.42 142.25 341.17V433.7C142.271 451.279 149.265 468.132 161.696 480.561C174.127 492.991 190.981 499.981 208.56 500H291.44C309.016 499.979 325.867 492.987 338.294 480.557C350.722 468.128 357.711 451.276 357.73 433.7V357.7H433.73C451.296 357.668 468.134 350.676 480.555 338.255C492.976 325.834 499.968 308.996 500 291.43V208.56C499.976 190.983 492.982 174.132 480.551 161.705C468.12 149.278 451.267 142.289 433.69 142.27Z" fill="#2563EB"/>
  </g>
  <defs>
  <clipPath id="clip0_1_3">
  <rect width="500" height="500" fill="white"/>
  </clipPath>
  </defs>
</svg>
